<svg viewBox="0 0 200 190" xmlns="http://www.w3.org/2000/svg" aria-hidden="true">
  <g font-family="ui-rounded, 'Segoe UI', system-ui, -apple-system, sans-serif" font-weight="800">
    <text x="52" y="48" font-size="30" fill="#059669">A
      <animate attributeName="opacity" values="0;1;1;0" dur="3s" repeatCount="indefinite"/>
      <animateTransform attributeName="transform" type="translate" values="0 8; 0 -10" dur="3s" repeatCount="indefinite"/>
    </text>
    <text x="96" y="36" font-size="26" fill="#10b981">a
      <animate attributeName="opacity" values="0;1;1;0" dur="3.4s" begin="0.6s" repeatCount="indefinite"/>
      <animateTransform attributeName="transform" type="translate" values="0 8; 0 -12" dur="3.4s" begin="0.6s" repeatCount="indefinite"/>
    </text>
    <text x="138" y="50" font-size="28" fill="#047857">B
      <animate attributeName="opacity" values="0;1;1;0" dur="3.8s" begin="1.2s" repeatCount="indefinite"/>
      <animateTransform attributeName="transform" type="translate" values="0 8; 0 -10" dur="3.8s" begin="1.2s" repeatCount="indefinite"/>
    </text>
  </g>

  <g>
    <animateTransform attributeName="transform" type="translate" values="0 0; 0 -8; 0 0" dur="2.8s" repeatCount="indefinite" calcMode="spline" keyTimes="0;0.5;1" keySplines="0.45 0 0.55 1;0.45 0 0.55 1"/>

    <path d="M100 70 L30 78 Q20 120 30 156 L100 166 Z" fill="#047857"/>
    <path d="M100 70 L170 78 Q180 120 170 156 L100 166 Z" fill="#059669"/>

    <path d="M100 72 L34 80 Q26 120 34 152 L100 162 Z" fill="#ecfdf5"/>
    <path d="M100 72 L166 80 Q174 120 166 152 L100 162 Z" fill="#ffffff"/>

    <g stroke="#6ee7b7" stroke-width="3" stroke-linecap="round">
      <line x1="48" y1="96" x2="90" y2="92"/>
      <line x1="44" y1="110" x2="90" y2="106"/>
      <line x1="44" y1="124" x2="90" y2="120"/>
      <line x1="46" y1="138" x2="88" y2="134"/>
      <line x1="110" y1="92" x2="152" y2="96"/>
      <line x1="110" y1="106" x2="156" y2="110"/>
      <line x1="110" y1="120" x2="156" y2="124"/>
      <line x1="112" y1="134" x2="154" y2="138"/>
    </g>

    <line x1="100" y1="74" x2="100" y2="160" stroke="#065f46" stroke-width="3" stroke-linecap="round"/>
    <path d="M94 72 L94 116 L100 108 L106 116 L106 72 Z" fill="#34d399"/>
  </g>

  <g fill="#34d399">
    <path d="M168 70 l2 6 6 2 -6 2 -2 6 -2 -6 -6 -2 6 -2 Z">
      <animate attributeName="opacity" values="0.2;1;0.2" dur="2.2s" repeatCount="indefinite"/>
    </path>
    <path d="M28 60 l1.6 5 5 1.6 -5 1.6 -1.6 5 -1.6 -5 -5 -1.6 5 -1.6 Z">
      <animate attributeName="opacity" values="1;0.2;1" dur="2.6s" repeatCount="indefinite"/>
    </path>
  </g>
</svg>
